<?xml version="1.0" encoding="utf-8"?>
<!-- Generator: Adobe Illustrator 24.1.1, SVG Export Plug-In . SVG Version: 6.00 Build 0)  -->
<svg version="1.1" id="Calque_1" xmlns="http://www.w3.org/2000/svg" xmlns:xlink="http://www.w3.org/1999/xlink" x="0px" y="0px"
	 viewBox="0 0 126 126" style="enable-background:new 0 0 126 126;" xml:space="preserve">
<style type="text/css">
	.st0{fill:#FFFFFF;}
	.st1{fill:none;stroke:#6B6B3D;stroke-width:2;stroke-linecap:round;stroke-linejoin:round;stroke-miterlimit:10;}
	.st2{fill:#6B6B3D;}
	.st3{fill:none;stroke:#000000;stroke-linecap:round;stroke-linejoin:round;stroke-miterlimit:10;}
	.st4{fill:none;stroke:#000000;stroke-linecap:round;stroke-linejoin:round;}
	.st5{fill:none;stroke:#000000;stroke-linecap:round;stroke-linejoin:round;stroke-dasharray:2.0859,2.0859;}
	.st6{fill:none;stroke:#000000;stroke-width:2;stroke-linecap:round;stroke-linejoin:round;}
	.st7{fill:none;stroke:#6B6B3D;stroke-width:2;stroke-linecap:round;stroke-linejoin:round;}
	.st8{fill:none;stroke:#6B6B3D;stroke-width:2;stroke-linecap:round;stroke-linejoin:round;stroke-dasharray:4,4;}
	.st9{fill:none;stroke:#B3B3B3;stroke-miterlimit:10;}
	.st10{fill:none;stroke:#000000;stroke-miterlimit:10;stroke-dasharray:4;}
</style>
<g>
	<circle class="st0" cx="63.3" cy="63" r="63"/>
</g>
<g>
	<g>
		<g>
			<path class="st6" d="M93.6,63h-3.9c-13.8,0-24.9,11.2-24.9,24.9V92"/>
			<g>
				<polygon points="86.9,54.9 85.5,56.4 92.8,63 85.6,69.8 87,71.3 95.7,63 				"/>
			</g>
		</g>
	</g>
	<g>
		<g>
			<path class="st7" d="M32.9,63h14c7.7,0,14,6.3,14,14v0"/>
			<g>
				<polygon class="st2" points="39.5,71.2 40.9,69.7 33.7,63 40.9,56.3 39.5,54.8 30.8,63 				"/>
			</g>
		</g>
	</g>
	<g>
		<g>
			<line class="st8" x1="62.8" y1="68" x2="62.8" y2="36.2"/>
			<g>
				<polygon class="st2" points="70.9,42.8 69.5,44.2 62.8,36.9 56,44.2 54.6,42.8 62.8,34 				"/>
			</g>
		</g>
	</g>
</g>
</svg>
