<?xml version="1.0" encoding="utf-8"?>
<!-- Generator: Adobe Illustrator 24.1.1, SVG Export Plug-In . SVG Version: 6.00 Build 0)  -->
<svg version="1.1" id="Calque_1" xmlns="http://www.w3.org/2000/svg" xmlns:xlink="http://www.w3.org/1999/xlink" x="0px" y="0px"
	 viewBox="0 0 126.5 129.1" style="enable-background:new 0 0 126.5 129.1;" xml:space="preserve">
<style type="text/css">
	.st0{fill:#FFFFFF;}
	.st1{fill:none;stroke:#6B6B3D;stroke-width:2;stroke-linecap:round;stroke-linejoin:round;stroke-miterlimit:10;}
	.st2{fill:#6B6B3D;}
	.st3{fill:none;stroke:#000000;stroke-linecap:round;stroke-linejoin:round;stroke-miterlimit:10;}
	.st4{fill:none;stroke:#000000;stroke-linecap:round;stroke-linejoin:round;}
	.st5{fill:none;stroke:#000000;stroke-linecap:round;stroke-linejoin:round;stroke-dasharray:2.0859,2.0859;}
	.st6{fill:none;stroke:#000000;stroke-width:2;stroke-linecap:round;stroke-linejoin:round;}
	.st7{fill:none;stroke:#6B6B3D;stroke-width:2;stroke-linecap:round;stroke-linejoin:round;}
	.st8{fill:none;stroke:#6B6B3D;stroke-width:2;stroke-linecap:round;stroke-linejoin:round;stroke-dasharray:4,4;}
	.st9{fill:none;stroke:#B3B3B3;stroke-miterlimit:10;}
	.st10{fill:none;stroke:#000000;stroke-miterlimit:10;stroke-dasharray:4;}
</style>
<g>
	<circle class="st0" cx="63" cy="63.3" r="63"/>
</g>
<g>
	<polygon class="st2" points="63,97.8 32,76.8 63,55.7 94,76.8 	"/>
	<polygon class="st3" points="63,70.8 32,49.8 63,28.7 94,49.8 	"/>
	<g>
		<g>
			<polyline class="st4" points="63.8,83.2 63,83.8 62.2,83.2 			"/>
			<line class="st5" x1="60.4" y1="82" x2="33.7" y2="63.9"/>
			<polyline class="st4" points="32.8,63.3 32,62.8 32.8,62.2 			"/>
			<line class="st5" x1="34.5" y1="61" x2="61.3" y2="42.9"/>
			<polyline class="st4" points="62.2,42.3 63,41.7 63.8,42.3 			"/>
			<line class="st5" x1="65.6" y1="43.5" x2="92.3" y2="61.6"/>
			<polyline class="st4" points="93.2,62.2 94,62.8 93.2,63.3 			"/>
			<line class="st5" x1="91.5" y1="64.5" x2="64.7" y2="82.6"/>
		</g>
	</g>
</g>
</svg>
