<?xml version="1.0" encoding="utf-8"?>
<!-- Generator: Adobe Illustrator 24.1.1, SVG Export Plug-In . SVG Version: 6.00 Build 0)  -->
<svg version="1.1" id="Calque_1" xmlns="http://www.w3.org/2000/svg" xmlns:xlink="http://www.w3.org/1999/xlink" x="0px" y="0px"
	 viewBox="0 0 187 68.5" style="enable-background:new 0 0 187 68.5;" xml:space="preserve">
<style type="text/css">
	.st0{fill:#FFFFFF;}
	.st1{fill:#6B6B3D;}
</style>
<g>
	<path class="st0" d="M94.5,38.6c-0.6,0.2-1.2,0.4-1.9,0.4c-0.7,0-1.4-0.1-1.9-0.4c-0.6-0.2-1.1-0.6-1.5-1c-0.4-0.4-0.8-1-1-1.6
		c-0.2-0.6-0.4-1.3-0.4-2s0.1-1.4,0.4-2c0.2-0.6,0.6-1.1,1-1.6c0.4-0.4,0.9-0.8,1.5-1c0.6-0.2,1.2-0.4,1.9-0.4
		c0.6,0,1.2,0.1,1.7,0.3c0.6,0.2,1,0.5,1.4,0.9l-0.2,0.2c-0.2-0.2-0.4-0.4-0.6-0.5c-0.2-0.1-0.5-0.3-0.7-0.4
		c-0.3-0.1-0.5-0.2-0.8-0.2c-0.3,0-0.5-0.1-0.8-0.1c-0.7,0-1.3,0.1-1.8,0.4c-0.6,0.2-1,0.6-1.4,1c-0.4,0.4-0.7,0.9-0.9,1.5
		c-0.2,0.6-0.3,1.2-0.3,1.8c0,0.7,0.1,1.3,0.3,1.8c0.2,0.6,0.5,1.1,0.9,1.5c0.4,0.4,0.9,0.8,1.4,1c0.6,0.2,1.2,0.4,1.9,0.4
		c0.6,0,1.2-0.1,1.7-0.3c0.6-0.2,1-0.6,1.4-1l0.2,0.2C95.6,38,95.1,38.4,94.5,38.6z"/>
	<path class="st0" d="M104.6,38.7l-1.1-2.7H98l-1.2,2.7h-0.3l4.1-9.4h0.4l3.9,9.4H104.6z M100.8,29.5l-2.7,6.3h5.3L100.8,29.5z"/>
	<path class="st0" d="M111.9,38.7l-2.8-4.7h-2.2v4.7h-0.3v-9.4h2.6c0.3,0,0.7,0,1,0.1c0.4,0.1,0.7,0.2,0.9,0.4
		c0.3,0.2,0.5,0.4,0.7,0.7c0.2,0.3,0.3,0.7,0.3,1.2c0,0.4-0.1,0.8-0.3,1.1c-0.2,0.3-0.4,0.5-0.7,0.7c-0.3,0.2-0.6,0.3-0.9,0.4
		c-0.3,0.1-0.6,0.1-0.9,0.1l2.9,4.8H111.9z M111.8,31.6c0-0.4-0.1-0.7-0.2-1c-0.2-0.3-0.4-0.5-0.6-0.6c-0.3-0.2-0.6-0.3-0.9-0.3
		c-0.3-0.1-0.7-0.1-1-0.1h-2.2v4.2h2.3c0.9,0,1.5-0.2,2-0.5C111.6,32.8,111.8,32.3,111.8,31.6z"/>
	<path class="st0" d="M120.4,36.2c0,0.5-0.1,0.9-0.3,1.2c-0.2,0.3-0.4,0.6-0.7,0.8c-0.3,0.2-0.6,0.3-1,0.4c-0.4,0.1-0.7,0.1-1,0.1
		h-2.9v-9.4h2.6c0.4,0,0.7,0,1.1,0.1c0.3,0.1,0.7,0.2,0.9,0.4c0.3,0.2,0.5,0.4,0.7,0.7c0.2,0.3,0.3,0.6,0.3,1.1
		c0,0.3-0.1,0.6-0.2,0.9c-0.1,0.2-0.3,0.5-0.4,0.6c-0.2,0.2-0.4,0.3-0.6,0.4c-0.2,0.1-0.5,0.2-0.7,0.2v0c0.2,0,0.5,0.1,0.8,0.2
		c0.3,0.1,0.5,0.3,0.8,0.4c0.2,0.2,0.4,0.4,0.6,0.7C120.3,35.4,120.4,35.8,120.4,36.2z M119.6,31.6c0-0.4-0.1-0.7-0.2-1
		c-0.2-0.3-0.3-0.5-0.6-0.6c-0.2-0.2-0.5-0.3-0.9-0.3c-0.3-0.1-0.7-0.1-1-0.1h-2.2v4h2.3c0.3,0,0.6,0,0.9-0.1
		c0.3-0.1,0.6-0.2,0.8-0.4c0.2-0.2,0.4-0.4,0.6-0.6C119.5,32.3,119.6,31.9,119.6,31.6z M120.1,36.2c0-0.4-0.1-0.8-0.3-1.1
		c-0.2-0.3-0.4-0.5-0.7-0.7c-0.3-0.2-0.6-0.3-0.9-0.4c-0.3-0.1-0.6-0.1-0.9-0.1h-2.6v4.6h2.5c0.4,0,0.8,0,1.1-0.1
		c0.4-0.1,0.7-0.2,0.9-0.4c0.3-0.2,0.5-0.4,0.6-0.7S120.1,36.6,120.1,36.2z"/>
	<path class="st0" d="M131.8,34c0,0.7-0.1,1.4-0.4,2c-0.2,0.6-0.6,1.1-1,1.6c-0.4,0.4-0.9,0.8-1.5,1c-0.6,0.2-1.2,0.4-1.9,0.4
		c-0.7,0-1.3-0.1-1.9-0.4c-0.6-0.2-1.1-0.6-1.5-1c-0.4-0.4-0.8-1-1-1.6c-0.2-0.6-0.4-1.3-0.4-2c0-0.7,0.1-1.4,0.4-2
		c0.2-0.6,0.6-1.1,1-1.6c0.4-0.4,0.9-0.8,1.5-1c0.6-0.2,1.2-0.4,1.9-0.4s1.3,0.1,1.9,0.4c0.6,0.2,1.1,0.6,1.5,1c0.4,0.4,0.8,1,1,1.6
		C131.7,32.6,131.8,33.3,131.8,34z M131.5,34c0-0.7-0.1-1.3-0.3-1.8c-0.2-0.6-0.5-1.1-0.9-1.5c-0.4-0.4-0.9-0.8-1.4-1
		c-0.6-0.2-1.2-0.4-1.8-0.4c-0.7,0-1.3,0.1-1.8,0.4c-0.6,0.2-1,0.6-1.4,1c-0.4,0.4-0.7,0.9-0.9,1.5c-0.2,0.6-0.3,1.2-0.3,1.8
		c0,0.7,0.1,1.3,0.3,1.8c0.2,0.6,0.5,1.1,0.9,1.5c0.4,0.4,0.9,0.8,1.4,1c0.6,0.2,1.2,0.4,1.9,0.4c0.7,0,1.3-0.1,1.9-0.4
		c0.6-0.2,1-0.6,1.4-1c0.4-0.4,0.7-0.9,0.9-1.5C131.4,35.3,131.5,34.7,131.5,34z"/>
	<path class="st0" d="M141.2,38.7l-6.7-9h0v9h-0.3v-9.4h0.4l6.8,9h0v-9h0.3v9.4H141.2z"/>
	<path class="st0" d="M153,36.5c0,0.4-0.1,0.8-0.2,1.1c-0.2,0.3-0.4,0.6-0.6,0.8c-0.3,0.2-0.6,0.4-0.9,0.5c-0.3,0.1-0.7,0.2-1.1,0.2
		c-0.6,0-1.1-0.1-1.6-0.3c-0.5-0.2-0.9-0.5-1.2-0.8l0.2-0.2c0.3,0.4,0.7,0.6,1.2,0.8c0.4,0.2,0.9,0.3,1.4,0.3c0.3,0,0.7-0.1,1-0.2
		c0.3-0.1,0.6-0.2,0.8-0.4c0.2-0.2,0.4-0.4,0.6-0.7c0.1-0.3,0.2-0.6,0.2-1c0-0.4-0.1-0.7-0.2-0.9c-0.2-0.2-0.3-0.5-0.6-0.6
		c-0.2-0.2-0.5-0.3-0.8-0.4c-0.3-0.1-0.6-0.2-0.9-0.3c-0.4-0.1-0.7-0.3-1.1-0.4c-0.3-0.1-0.6-0.3-0.8-0.5c-0.2-0.2-0.4-0.4-0.5-0.7
		c-0.1-0.3-0.2-0.6-0.2-1c0-0.4,0.1-0.7,0.2-1c0.2-0.3,0.4-0.6,0.6-0.8c0.3-0.2,0.6-0.4,0.9-0.5c0.3-0.1,0.7-0.2,1.1-0.2
		c0.5,0,0.9,0.1,1.4,0.3c0.4,0.2,0.8,0.4,1.1,0.8l-0.2,0.2c-0.2-0.3-0.6-0.6-0.9-0.7c-0.4-0.2-0.8-0.3-1.3-0.3c-0.3,0-0.6,0-0.9,0.1
		c-0.3,0.1-0.6,0.2-0.8,0.4c-0.2,0.2-0.4,0.4-0.6,0.7c-0.2,0.3-0.2,0.6-0.2,1c0,0.4,0.1,0.7,0.2,0.9c0.1,0.3,0.3,0.5,0.5,0.6
		c0.2,0.2,0.5,0.3,0.8,0.4c0.3,0.1,0.6,0.2,0.9,0.3c0.4,0.1,0.8,0.3,1.1,0.4c0.3,0.1,0.6,0.3,0.9,0.5c0.3,0.2,0.5,0.4,0.6,0.7
		C152.9,35.7,153,36.1,153,36.5z"/>
	<path class="st0" d="M162,38.7V34h-6.3v4.7h-0.3v-9.4h0.3v4.4h6.3v-4.4h0.3v9.4H162z"/>
	<path class="st0" d="M171.9,38.7l-1.1-2.7h-5.5l-1.2,2.7h-0.3l4.1-9.4h0.4l3.9,9.4H171.9z M168.1,29.5l-2.7,6.3h5.3L168.1,29.5z"/>
	<path class="st0" d="M179.4,31.7c0,0.4-0.1,0.8-0.2,1.1c-0.1,0.3-0.3,0.6-0.6,0.8c-0.2,0.2-0.5,0.4-0.9,0.5
		c-0.3,0.1-0.7,0.2-1.1,0.2h-2.4v4.6h-0.3v-9.4h2.5c0.3,0,0.7,0,1,0.1c0.3,0.1,0.7,0.2,0.9,0.4c0.3,0.2,0.5,0.4,0.7,0.7
		C179.3,30.8,179.4,31.2,179.4,31.7z M179.1,31.7c0-0.4-0.1-0.7-0.2-1c-0.2-0.3-0.3-0.5-0.6-0.6c-0.2-0.2-0.5-0.3-0.8-0.3
		c-0.3-0.1-0.6-0.1-0.9-0.1h-2.4v4.3h2.4c0.3,0,0.6,0,0.9-0.1c0.3-0.1,0.6-0.2,0.8-0.4c0.2-0.2,0.4-0.4,0.6-0.7
		C179,32.4,179.1,32,179.1,31.7z"/>
	<path class="st0" d="M181.5,38.7v-9.4h5.5v0.3h-5.2v4.1h4.9V34h-4.9v4.5h5.4v0.3H181.5z"/>
</g>
<g>
	<polygon class="st0" points="33.5,68.2 -0.5,34.2 33.5,0.2 38.4,5.1 9.2,34.2 33.5,58.5 62.7,29.4 67.5,34.2 	"/>
</g>
<g>
	<polygon class="st1" points="34.1,53.7 29.9,49.4 51.7,27.6 48.4,24.2 26.5,46.1 14.7,34.2 40.8,8.1 45.1,12.4 23.2,34.2 
		26.5,37.6 48.4,15.7 60.2,27.6 	"/>
</g>
</svg>
