<?xml version="1.0" encoding="utf-8"?>
<!-- Generator: Adobe Illustrator 25.0.0, SVG Export Plug-In . SVG Version: 6.00 Build 0)  -->
<svg version="1.1" id="Calque_1" xmlns="http://www.w3.org/2000/svg" xmlns:xlink="http://www.w3.org/1999/xlink" x="0px" y="0px"
	 viewBox="0 0 187 68.5" style="enable-background:new 0 0 187 68.5;" xml:space="preserve">
<style type="text/css">
	.st0{fill:#FFFFFF;}
	.st1{fill:#312782;}
	.st2{fill:#E20613;}
</style>
<g>
	<path class="st0" d="M49.5,43c-0.2,0-0.3-0.2-0.3-0.4v-3.1c0-0.2,0.1-0.3,0.2-0.3h1c0.5,0,0.9-0.5,0.7-1L51,37.9
		c-0.1-0.3-0.4-0.5-0.7-0.5h-2.9c-0.3,0-0.6,0.2-0.7,0.5l-0.1,0.3c-0.2,0.5,0.2,1,0.7,1h1.2c0.1,0,0.2,0.1,0.2,0.3v3.1
		c0,0.3-0.1,0.4-0.2,0.4h-7.9c-0.7,0-1.3-0.6-1.3-1.3v-2.3c0-0.2,0.1-0.4,0.3-0.4h2.1c0.3,0,0.6-0.2,0.7-0.5l4.7-10.9
		c0.1-0.3,0.3-0.4,0.4-0.4h5.8c0.3,0,0.4,0.2,0.5,0.4l4.9,11.2c0.1,0.3,0.4,0.4,0.7,0.4h2.3c0.2,0,0.2,0.4,0.2,0.7v2.7
		c0,0.3-0.1,0.3-0.4,0.3H49.5z M48.8,35.5L48.8,35.5c0.5,0,0.9-0.5,0.7-1L48.9,33c0-0.1-0.2-0.1-0.2,0l-0.6,1.4
		C47.9,35,48.3,35.5,48.8,35.5z"/>
	<path class="st0" d="M79,27.3c0.3,0,3.1,0.1,4.2,0.9c0.8,0.5,1.9,1.6,1.9,3.3c0,1.3-0.9,2.3-1.9,3.1c-0.3,0.2-0.3,0.7,0,0.9
		c0.7,0.6,1.1,1.2,1.4,2.9c0.1,0.4,0.2,0.7,0.4,0.7c0.3,0,1-0.4,1-1.8l0,0c0-0.4,0.4-0.8,0.8-0.8h0.9c0.1,0,0.1,0.1,0.1,0.3v2.3
		c0,2.2-2,3.9-2.9,3.9h-5c-0.8,0-1.6-1.2-1.8-1.8c-0.2-0.5-0.5-2.2-0.6-2.7c-0.4-1.6-1.7-1.7-2-1.7h-2.6c-0.3,0-0.6,0.3-0.6,0.6v1.1
		c0,0.3,0.3,0.6,0.6,0.6h2.4c0.1,0,0.2,0,0.2,0.1v3.6c0,0.1-0.1,0.1-0.2,0.1H62.9c-0.1,0-0.1-0.1-0.1-0.3v-3.4
		c0-0.1,0.1-0.3,0.1-0.3h2.2c0.3,0,0.6-0.3,0.6-0.6v-6.8c0-0.3-0.3-0.6-0.6-0.6h-2.2c-0.1,0-0.2,0-0.2-0.3v-3.2
		c0-0.1,0.1-0.3,0.1-0.3H79z M72.2,31.7v1.2c0,0.3,0.3,0.6,0.6,0.6h3.3c0.8,0,1.8-0.3,1.8-1.1c0-1-1.3-1.2-1.5-1.2h-3.6
		C72.5,31.1,72.2,31.4,72.2,31.7z"/>
	<path class="st0" d="M88.4,43c-0.1,0-0.2-0.1-0.2-0.2v-3.2c0-0.4,0.1-0.6,0.2-0.6h1.8c0.6,0,1.1-0.5,1.1-1.1v-5.7
		c0-0.6-0.5-1.1-1.1-1.1h-1.6c-0.3,0-0.3-0.1-0.3-0.3v-2.9c0-0.4,0.1-0.6,0.2-0.6h17.7c2.1,0,4.6,1.6,4.6,3.9c0,1.3-0.7,2.3-1.4,3
		c-0.5,0.5-0.4,1.2,0.1,1.6c0.7,0.5,1.4,1.4,1.4,3.1c0,3.4-3.1,4-3.6,4H88.4z M97.7,32.2c0,0.6,0.5,1.1,1.1,1.1h3.6
		c0.4,0,0.9-0.4,0.9-1c0-0.6-0.8-1.1-1.3-1.1h-3.3C98.2,31.1,97.7,31.6,97.7,32.2L97.7,32.2z M97.7,38c0,0.6,0.5,1.1,1.1,1.1h3.2
		c0.8,0,1.4-0.3,1.4-1c0-0.7-0.7-1.2-1.3-1.2h-3.3C98.2,36.9,97.7,37.4,97.7,38L97.7,38z"/>
	<path class="st0" d="M123.9,27.3c5.9,0,9.6,3.6,9.6,7.4c0,3.8-2.6,8.3-9,8.3h-2.3c-5.2,0-7.4-1.8-8.8-3.6c-1.1-1.4-1.4-3.3-1.4-4.5
		c0-1.6,0.7-3,1.3-4c1.1-1.7,3.9-3.6,8.1-3.6H123.9z M119.5,34.9c0,2.2,1.4,4.4,3.3,4.4c2.1,0,3.3-2.2,3.3-4.1
		c0-1.9-1.3-4.4-3.4-4.4C121,30.9,119.5,32.8,119.5,34.9z"/>
	<path class="st0" d="M145.9,27.3c0.1,0,0.3,0.1,0.4,0.3l4.1,5.8c0.7,1,2.4,0.5,2.4-0.8v0c0-0.7-0.6-1.3-1.3-1.3H150
		c-0.2,0-0.3-0.1-0.3-0.3v-3.2c0-0.3,0.1-0.5,0.2-0.5h9.1c0.2,0,0.3,0.3,0.3,0.5v3.1c0,0.3-0.1,0.4-0.3,0.4h-1.4
		c-0.7,0-1.3,0.6-1.3,1.3v9.9c0,0.4-0.1,0.6-0.2,0.6h-7.8c-0.1,0-0.2,0-0.3-0.1l-4.8-6.7c-0.7-1-2.4-0.5-2.4,0.8v0.8
		c0,0.7,0.6,1.3,1.3,1.3h1.6c0.2,0,0.3,0.1,0.3,0.3v3.2c0,0.3-0.1,0.5-0.3,0.5h-9.3c-0.1,0-0.2-0.1-0.2-0.4v-3.2
		c0-0.2,0.1-0.4,0.3-0.4h1.4c0.7,0,1.3-0.6,1.3-1.3v-5.2c0-0.7-0.6-1.3-1.3-1.3h-1.5c-0.1,0-0.2-0.1-0.2-0.4v-3.3
		c0-0.2,0.1-0.3,0.3-0.3H145.9z"/>
</g>
<g>
	<path class="st0" d="M58.6,47.9c-0.1,0.2-0.3,0.3-0.5,0.3c-0.6-0.2-1.2-0.4-1.7-0.5c-0.6-0.1-1.2-0.2-1.8-0.2
		c-0.5,0-0.9,0.1-1.2,0.2C53.1,47.8,53,48,53,48.3c0,0.2,0.1,0.4,0.3,0.5c0.2,0.2,0.7,0.4,1.5,0.7c1.2,0.4,2.1,0.9,2.6,1.3
		c0.5,0.5,0.7,1,0.7,1.8c0,0.7-0.3,1.3-0.8,1.8c-0.6,0.5-1.3,0.9-2.3,1.2c-1,0.3-2.2,0.4-3.5,0.4c-1,0-1.9-0.1-2.8-0.2
		c-0.7-0.1-1.3-0.3-1.9-0.4c-0.2-0.1-0.3-0.3-0.3-0.5l0.6-1.7c0.1-0.2,0.3-0.3,0.5-0.2c1.2,0.6,2.5,0.8,3.8,0.8
		c1.1,0,1.7-0.3,1.7-0.8c0-0.2-0.1-0.4-0.4-0.6c-0.3-0.2-0.8-0.3-1.5-0.6c-1.2-0.4-2-0.8-2.5-1.2c-0.5-0.5-0.8-1-0.8-1.7
		c0-0.7,0.3-1.3,0.8-1.8c0.5-0.5,1.3-1,2.3-1.2c1-0.3,2.1-0.4,3.3-0.4c1,0,1.9,0.1,2.7,0.2c0.6,0.1,1.2,0.2,1.7,0.3
		c0.2,0.1,0.4,0.3,0.3,0.5L58.6,47.9z"/>
	<path class="st0" d="M73.7,55.7h-3.9c-0.3,0-0.5-0.3-0.4-0.5l0.9-2.8c0.1-0.3-0.1-0.5-0.4-0.5h-4.5c-0.2,0-0.3,0.1-0.4,0.3L64,55.4
		c-0.1,0.2-0.2,0.3-0.4,0.3h-3.8c-0.3,0-0.5-0.3-0.4-0.5l3.1-9.6c0.1-0.2,0.2-0.3,0.4-0.3h3.8c0.3,0,0.5,0.3,0.4,0.5l-0.9,2.8
		c-0.1,0.3,0.1,0.5,0.4,0.5h4.5c0.2,0,0.3-0.1,0.4-0.3l1-3.3c0.1-0.2,0.2-0.3,0.4-0.3h3.9c0.3,0,0.5,0.3,0.4,0.5l-3.1,9.6
		C74,55.6,73.9,55.7,73.7,55.7z"/>
	<path class="st0" d="M87.1,55.4L87,54.2c0-0.2-0.2-0.4-0.4-0.4h-4.1c-0.1,0-0.3,0.1-0.3,0.2L81,55.6c-0.1,0.1-0.2,0.2-0.3,0.2h-4.1
		c-0.3,0-0.5-0.4-0.3-0.7l8-9.6c0.1-0.1,0.2-0.1,0.3-0.1h5.3c0.2,0,0.4,0.1,0.4,0.3l1.6,9.6c0,0.2-0.1,0.5-0.4,0.5h-3.9
		C87.3,55.7,87.2,55.6,87.1,55.4z M86.5,48.4c0-0.3,0-0.6,0.1-0.7h-0.1l-0.2,0.4c0,0,0,0,0,0l-0.4,0.6l-1.4,2
		c-0.2,0.3,0,0.6,0.3,0.6h1.5c0.2,0,0.4-0.2,0.4-0.4l-0.2-2.2L86.5,48.4z"/>
	<path class="st0" d="M108.8,48.5c0,0.8-0.3,1.5-0.9,2.1c-0.6,0.6-1.4,1.1-2.5,1.4c-1,0.3-2.3,0.5-3.7,0.5h-1.9
		c-0.2,0-0.3,0.1-0.4,0.3l-0.9,2.8c-0.1,0.2-0.2,0.3-0.4,0.3h-3.8c-0.3,0-0.5-0.3-0.4-0.5l3-9.6c0.1-0.2,0.2-0.3,0.4-0.3h6
		c1.8,0,3.1,0.3,4,0.8C108.3,46.7,108.8,47.5,108.8,48.5z M103.8,48.7c0-0.4-0.2-0.6-0.5-0.8c-0.3-0.2-0.8-0.3-1.4-0.3h-0.5
		c-0.2,0-0.3,0.1-0.4,0.3l-0.5,1.7c-0.1,0.3,0.1,0.5,0.4,0.5h0.8c0.7,0,1.2-0.1,1.6-0.4C103.6,49.5,103.8,49.1,103.8,48.7z"/>
	<path class="st0" d="M120.5,47.8h-4.4c-0.2,0-0.3,0.1-0.4,0.3l-0.2,0.7c-0.1,0.3,0.1,0.5,0.4,0.5h3.6c0.3,0,0.5,0.3,0.4,0.5
		l-0.5,1.6c-0.1,0.2-0.2,0.3-0.4,0.3h-4.1c-0.2,0-0.3,0.1-0.4,0.3l-0.2,0.7c-0.1,0.3,0.1,0.5,0.4,0.5h4.2c0.3,0,0.5,0.3,0.4,0.5
		l-0.5,1.6c-0.1,0.2-0.2,0.3-0.4,0.3h-9.2c-0.3,0-0.5-0.3-0.4-0.5l3-9.6c0.1-0.2,0.2-0.3,0.4-0.3h8.8c0.3,0,0.5,0.3,0.4,0.5
		l-0.5,1.6C120.8,47.7,120.7,47.8,120.5,47.8z"/>
</g>
<path id="XMLID_6_" class="st0" d="M52,24.7c31.2-0.7,31.3-1.5,62.5-2.2c3.2-0.1,6.3-1.7,9.5-1.8c3.2-0.1,6.5,1.4,9.7,1.3
	c17.9-0.4,32.4-0.8,50-1.2c0.8,0,1.2,0.9,0.6,1.5c-9,8.2-13.8,13.5-22,21.1c-0.5,0.5-1.4-0.2-0.9-0.8l12.3-17c0.3-0.4,0-0.9-0.5-0.9
	c-14.1,0-25.4,0-39.6,0c-3.2,0-6.4-1.7-9.6-1.7c-3.2,0-6.3,1.7-9.5,1.7C83.4,24.7,83.3,24.7,52,24.7z"/>
<g id="XMLID_2_">
	<path id="XMLID_19_" class="st0" d="M39.2,36"/>
	<path id="XMLID_9_" class="st0" d="M37.8,37.1"/>
	<path id="XMLID_14_" class="st0" d="M37.8,37.1"/>
	<path id="XMLID_5_" class="st0" d="M39.2,36"/>
	<g id="XMLID_12_">
		<path id="XMLID_13_" class="st0" d="M24.3,30.7L24.3,30.7c0-0.2,0.2-0.4,0.4-0.4h12.2c0,0,0,0,0,0h0.8c0.3,0,0.5-0.3,0.4-0.6
			c-2-4.5-6.6-7.6-11.8-7.6c-7.2,0-13,3.6-13,10.8c0,3,2.5,7.9,4.2,10.1h0.2h17.2h1h0.5c0.1,0,0.3-0.1,0.3-0.2
			c1.3-1.8,2.2-4,2.5-6.3c0-0.3-0.2-0.5-0.4-0.5C31.7,36.1,24.3,37.7,24.3,30.7"/>
	</g>
	<path id="XMLID_11_" class="st0" d="M24.3,30.7"/>
	<path id="XMLID_4_" class="st0" d="M23,30.7"/>
</g>
<path id="XMLID_20_" class="st0" d="M38.6,44.9c-3,3.6-7.5,5.8-12.6,5.8c-8.8,0-16.1-7.2-16.3-16C9.5,25.5,16.9,18,26.1,18
	c5.3,0,10,2.5,13,6.4c0.2,0.2,0.4,0.4,0.7,0.4h6.6c0.8,0,1.4-0.9,1-1.6c-4-7.6-12.1-12.8-21.3-12.8C13,10.3,2.2,21,2,34
	c-0.2,13.4,10.6,24.4,24,24.4c9.3,0,17.3-5.2,21.3-12.9c0.4-0.7-0.2-1.5-0.9-1.5h-5.8C39.9,44,39.1,44.3,38.6,44.9z"/>
<path class="st0" d="M152.5,55.9h-28.4c-0.8,0-1.4-0.8-1.2-1.6l2.4-8.3c0.2-0.5,0.6-0.9,1.2-0.9h28.4c0.8,0,1.4,0.8,1.2,1.6
	l-2.4,8.3C153.5,55.5,153,55.9,152.5,55.9z"/>
<path class="st0" d="M152.5,55.9h-28.4c-0.8,0-1.4-0.8-1.2-1.6l2.4-8.3c0.2-0.5,0.6-0.9,1.2-0.9h28.4c0.8,0,1.4,0.8,1.2,1.6
	l-2.4,8.3C153.5,55.5,153,55.9,152.5,55.9z"/>
<path class="st1" d="M132.8,55.9h-8.7c-0.8,0-1.4-0.8-1.2-1.6l2.4-8.3c0.2-0.5,0.6-0.9,1.2-0.9h9.4L132.8,55.9z"/>
<path class="st2" d="M152.5,55.9h-9.4l3.1-10.7h8.7c0.8,0,1.4,0.8,1.2,1.6l-2.4,8.3C153.6,55.5,153.1,55.9,152.5,55.9z"/>
</svg>
