<?xml version="1.0" encoding="utf-8"?>
<!-- Generator: Adobe Illustrator 24.1.1, SVG Export Plug-In . SVG Version: 6.00 Build 0)  -->
<svg version="1.1" id="Calque_1" xmlns="http://www.w3.org/2000/svg" xmlns:xlink="http://www.w3.org/1999/xlink" x="0px" y="0px"
	 viewBox="0 0 187 68.5" style="enable-background:new 0 0 187 68.5;" xml:space="preserve">
<style type="text/css">
	.st0{fill:#FFFFFF;}
	.st1{fill:#6B6B3D;}
</style>
<g>
	<g>
		<path class="st0" d="M82.7,39.1c-0.7,0-1.4-0.1-2-0.4s-1.1-0.6-1.6-1.1c-0.4-0.4-0.8-1-1-1.6c-0.2-0.6-0.4-1.3-0.4-2
			c0-0.7,0.1-1.4,0.4-2c0.2-0.6,0.6-1.2,1-1.6c0.4-0.4,1-0.8,1.6-1.1c0.6-0.3,1.3-0.4,2-0.4c0.6,0,1.2,0.1,1.7,0.3
			c0.6,0.2,1.1,0.5,1.5,0.9c0,0,0,0.1,0,0.2l-0.2,0.2c0,0-0.1,0-0.1,0c0,0,0,0,0,0c0,0-0.1,0-0.1,0c-0.2-0.2-0.4-0.4-0.6-0.5
			c-0.2-0.1-0.5-0.3-0.7-0.4c-0.3-0.1-0.5-0.2-0.8-0.2c-0.3,0-0.5-0.1-0.7-0.1c-0.7,0-1.3,0.1-1.8,0.4c-0.5,0.2-1,0.6-1.4,1
			c-0.4,0.4-0.7,0.9-0.9,1.5c-0.2,0.6-0.3,1.2-0.3,1.8c0,0.6,0.1,1.2,0.3,1.8c0.2,0.6,0.5,1,0.9,1.5c0.4,0.4,0.8,0.7,1.4,1
			c0.5,0.2,1.1,0.4,1.8,0.4c0.6,0,1.1-0.1,1.7-0.3c0.5-0.2,1-0.5,1.4-1c0,0,0.1,0,0.1,0c0,0,0,0,0,0c0,0,0.1,0,0.1,0l0.2,0.2
			c0,0,0.1,0.1,0,0.2c-0.4,0.5-0.9,0.9-1.6,1.1C84,39,83.3,39.1,82.7,39.1z"/>
		<path class="st0" d="M82.7,29.1c0.6,0,1.2,0.1,1.7,0.3c0.6,0.2,1,0.5,1.4,0.9l-0.2,0.2c-0.2-0.2-0.4-0.4-0.6-0.5
			c-0.2-0.1-0.5-0.3-0.7-0.4c-0.3-0.1-0.5-0.2-0.8-0.2c-0.3,0-0.5-0.1-0.8-0.1c-0.7,0-1.3,0.1-1.8,0.4c-0.6,0.2-1,0.6-1.4,1
			c-0.4,0.4-0.7,0.9-0.9,1.5c-0.2,0.6-0.3,1.2-0.3,1.8c0,0.7,0.1,1.3,0.3,1.8c0.2,0.6,0.5,1.1,0.9,1.5c0.4,0.4,0.9,0.8,1.4,1
			c0.6,0.2,1.2,0.4,1.9,0.4c0.6,0,1.2-0.1,1.7-0.3c0.6-0.2,1-0.6,1.4-1l0.2,0.2c-0.4,0.5-0.9,0.8-1.5,1.1c-0.6,0.2-1.2,0.4-1.9,0.4
			c-0.7,0-1.4-0.1-1.9-0.4c-0.6-0.2-1.1-0.6-1.5-1c-0.4-0.4-0.8-1-1-1.6c-0.2-0.6-0.4-1.3-0.4-2c0-0.7,0.1-1.4,0.4-2
			c0.2-0.6,0.6-1.1,1-1.6c0.4-0.4,0.9-0.8,1.5-1C81.3,29.2,82,29.1,82.7,29.1 M82.7,28.8c-0.7,0-1.4,0.1-2,0.4
			c-0.6,0.3-1.2,0.6-1.6,1.1c-0.4,0.5-0.8,1-1,1.7c-0.2,0.6-0.4,1.3-0.4,2.1s0.1,1.4,0.4,2.1c0.2,0.6,0.6,1.2,1,1.7
			c0.4,0.5,1,0.8,1.6,1.1c0.6,0.3,1.3,0.4,2,0.4c0.7,0,1.3-0.1,1.9-0.4c0.6-0.2,1.2-0.6,1.6-1.1c0.1-0.1,0.1-0.3,0-0.3L86,37.2
			c0,0-0.1-0.1-0.2-0.1c0,0,0,0,0,0c-0.1,0-0.1,0-0.2,0.1c-0.3,0.4-0.8,0.7-1.3,0.9c-0.5,0.2-1.1,0.3-1.6,0.3
			c-0.6,0-1.2-0.1-1.8-0.3c-0.5-0.2-1-0.5-1.3-0.9c-0.4-0.4-0.7-0.9-0.9-1.4c-0.2-0.5-0.3-1.1-0.3-1.8c0-0.6,0.1-1.2,0.3-1.7
			c0.2-0.5,0.5-1,0.9-1.4c0.4-0.4,0.8-0.7,1.3-0.9c0.5-0.2,1.1-0.3,1.7-0.3c0.2,0,0.5,0,0.7,0.1c0.2,0,0.5,0.1,0.7,0.2
			c0.2,0.1,0.5,0.2,0.7,0.3c0.2,0.1,0.4,0.3,0.6,0.5c0,0,0.1,0.1,0.2,0.1c0,0,0,0,0,0c0.1,0,0.1,0,0.2-0.1l0.2-0.2
			c0.1-0.1,0.1-0.2,0-0.3c-0.4-0.4-0.9-0.8-1.5-1C83.9,28.9,83.3,28.8,82.7,28.8L82.7,28.8z"/>
	</g>
	<g>
		<path class="st0" d="M94.7,38.8c-0.1,0-0.1,0-0.1-0.1l-1.1-2.6h-5.3l-1.1,2.6c0,0-0.1,0.1-0.1,0.1h-0.3c0,0-0.1,0-0.1-0.1
			c0,0,0-0.1,0-0.1l4.1-9.4c0,0,0.1-0.1,0.1-0.1h0.4c0.1,0,0.1,0,0.1,0.1l3.9,9.4c0,0,0,0.1,0,0.1S95,38.8,95,38.8H94.7z M93.3,35.6
			l-2.4-5.8l-2.5,5.8H93.3z"/>
		<path class="st0" d="M91.1,29.3l3.9,9.4h-0.3L93.6,36h-5.5l-1.2,2.7h-0.3l4.1-9.4H91.1 M88.2,35.8h5.3l-2.6-6.3L88.2,35.8
			 M91.1,29.1h-0.4c-0.1,0-0.2,0.1-0.2,0.2l-4.1,9.4c0,0.1,0,0.2,0,0.2c0,0.1,0.1,0.1,0.2,0.1h0.3c0.1,0,0.2-0.1,0.2-0.2l1.1-2.5
			h5.1l1.1,2.5c0,0.1,0.1,0.2,0.2,0.2H95c0.1,0,0.2,0,0.2-0.1s0.1-0.2,0-0.2l-3.9-9.4C91.3,29.1,91.2,29.1,91.1,29.1L91.1,29.1z
			 M88.6,35.5l2.3-5.4l2.2,5.4H88.6L88.6,35.5z"/>
	</g>
	<g>
		<path class="st0" d="M102,38.8c0,0-0.1,0-0.1-0.1l-2.8-4.7h-2v4.6c0,0.1-0.1,0.1-0.1,0.1h-0.3c-0.1,0-0.1-0.1-0.1-0.1v-9.4
			c0-0.1,0.1-0.1,0.1-0.1h2.6c0.3,0,0.7,0,1.1,0.1c0.4,0.1,0.7,0.2,1,0.4c0.3,0.2,0.5,0.4,0.7,0.8c0.2,0.3,0.3,0.7,0.3,1.2
			c0,0.5-0.1,0.9-0.3,1.2c-0.2,0.3-0.4,0.6-0.7,0.8c-0.3,0.2-0.6,0.3-0.9,0.4c-0.3,0.1-0.5,0.1-0.8,0.1l2.7,4.6c0,0,0,0.1,0,0.1
			c0,0-0.1,0.1-0.1,0.1H102z M99.2,33.6c0.8,0,1.5-0.2,1.9-0.5c0.4-0.3,0.6-0.8,0.6-1.4c0-0.4-0.1-0.7-0.2-1
			c-0.1-0.3-0.3-0.4-0.6-0.6c-0.2-0.1-0.5-0.3-0.9-0.3c-0.3-0.1-0.7-0.1-1-0.1h-2v3.9H99.2z"/>
		<path class="st0" d="M99.2,29.3c0.3,0,0.7,0,1,0.1c0.4,0.1,0.7,0.2,0.9,0.4c0.3,0.2,0.5,0.4,0.7,0.7c0.2,0.3,0.3,0.7,0.3,1.2
			c0,0.4-0.1,0.8-0.3,1.1c-0.2,0.3-0.4,0.5-0.7,0.7c-0.3,0.2-0.6,0.3-0.9,0.4c-0.3,0.1-0.6,0.1-0.9,0.1l2.9,4.8H102L99.1,34h-2.2
			v4.7h-0.3v-9.4H99.2 M96.9,33.7h2.3c0.9,0,1.5-0.2,2-0.5c0.5-0.4,0.7-0.9,0.7-1.5c0-0.4-0.1-0.7-0.2-1c-0.2-0.3-0.4-0.5-0.6-0.6
			c-0.3-0.2-0.6-0.3-0.9-0.3c-0.3-0.1-0.7-0.1-1-0.1h-2.2V33.7 M99.2,29.1h-2.6c-0.1,0-0.3,0.1-0.3,0.3v9.4c0,0.1,0.1,0.3,0.3,0.3
			h0.3c0.1,0,0.3-0.1,0.3-0.3v-4.5H99l2.8,4.6c0,0.1,0.1,0.1,0.2,0.1h0.3c0.1,0,0.2,0,0.2-0.1s0-0.2,0-0.3l-2.6-4.4
			c0.2,0,0.4-0.1,0.6-0.1c0.4-0.1,0.7-0.2,1-0.4c0.3-0.2,0.5-0.5,0.7-0.8c0.2-0.3,0.3-0.7,0.3-1.2c0-0.5-0.1-1-0.3-1.3
			c-0.2-0.3-0.5-0.6-0.8-0.8c-0.3-0.2-0.7-0.3-1-0.4C100,29.1,99.6,29.1,99.2,29.1L99.2,29.1z M97.2,29.8h1.9c0.3,0,0.7,0,1,0.1
			c0.3,0.1,0.6,0.2,0.8,0.3c0.2,0.1,0.4,0.3,0.5,0.5c0.1,0.2,0.2,0.5,0.2,0.9c0,0.6-0.2,1-0.6,1.3c-0.4,0.3-1,0.5-1.8,0.5h-2V29.8
			L97.2,29.8z"/>
	</g>
	<g>
		<path class="st0" d="M104.5,38.8c-0.1,0-0.1-0.1-0.1-0.1v-9.4c0-0.1,0.1-0.1,0.1-0.1h2.6c0.4,0,0.7,0,1.1,0.1
			c0.4,0.1,0.7,0.2,1,0.4c0.3,0.2,0.5,0.4,0.7,0.7c0.2,0.3,0.3,0.7,0.3,1.1c0,0.4-0.1,0.7-0.2,0.9c-0.1,0.3-0.3,0.5-0.5,0.7
			c-0.2,0.2-0.4,0.3-0.7,0.5c-0.1,0-0.2,0.1-0.3,0.1c0.1,0,0.2,0.1,0.3,0.1c0.3,0.1,0.6,0.3,0.8,0.5c0.2,0.2,0.5,0.5,0.6,0.8
			c0.2,0.3,0.2,0.7,0.2,1.1c0,0.5-0.1,1-0.3,1.3c-0.2,0.3-0.5,0.6-0.8,0.8c-0.3,0.2-0.7,0.3-1,0.4c-0.4,0.1-0.7,0.1-1.1,0.1H104.5z
			 M107.3,38.3c0.4,0,0.8,0,1.1-0.1c0.3-0.1,0.6-0.2,0.9-0.4c0.2-0.2,0.4-0.4,0.6-0.6c0.1-0.3,0.2-0.6,0.2-0.9c0-0.4-0.1-0.7-0.2-1
			c-0.2-0.3-0.4-0.5-0.6-0.7c-0.3-0.2-0.5-0.3-0.8-0.4c-0.3-0.1-0.6-0.1-0.9-0.1h-2.5v4.3H107.3z M107.1,33.5c0.3,0,0.6,0,0.9-0.1
			c0.3-0.1,0.6-0.2,0.8-0.3c0.2-0.2,0.4-0.4,0.6-0.6c0.1-0.2,0.2-0.5,0.2-0.9c0-0.4-0.1-0.7-0.2-0.9c-0.1-0.2-0.3-0.4-0.6-0.6
			c-0.2-0.1-0.5-0.2-0.8-0.3c-0.3-0.1-0.6-0.1-1-0.1h-2.1v3.8H107.1z"/>
		<path class="st0" d="M107.1,29.3c0.4,0,0.7,0,1.1,0.1c0.3,0.1,0.7,0.2,0.9,0.4c0.3,0.2,0.5,0.4,0.7,0.7c0.2,0.3,0.3,0.6,0.3,1.1
			c0,0.3-0.1,0.6-0.2,0.9c-0.1,0.2-0.3,0.5-0.4,0.6c-0.2,0.2-0.4,0.3-0.6,0.4c-0.2,0.1-0.5,0.2-0.7,0.2v0c0.2,0,0.5,0.1,0.8,0.2
			c0.3,0.1,0.5,0.3,0.8,0.4c0.2,0.2,0.4,0.4,0.6,0.7c0.2,0.3,0.2,0.7,0.2,1.1c0,0.5-0.1,0.9-0.3,1.2c-0.2,0.3-0.4,0.6-0.7,0.8
			c-0.3,0.2-0.6,0.3-1,0.4c-0.4,0.1-0.7,0.1-1,0.1h-2.9v-9.4H107.1 M104.8,33.6h2.3c0.3,0,0.6,0,0.9-0.1c0.3-0.1,0.6-0.2,0.8-0.4
			c0.2-0.2,0.4-0.4,0.6-0.6c0.2-0.3,0.2-0.6,0.2-0.9c0-0.4-0.1-0.7-0.2-1c-0.2-0.3-0.3-0.5-0.6-0.6c-0.2-0.2-0.5-0.3-0.9-0.3
			c-0.3-0.1-0.7-0.1-1-0.1h-2.2V33.6 M104.8,38.5h2.5c0.4,0,0.8,0,1.1-0.1c0.4-0.1,0.7-0.2,0.9-0.4c0.3-0.2,0.5-0.4,0.6-0.7
			s0.2-0.6,0.2-1c0-0.4-0.1-0.8-0.3-1.1c-0.2-0.3-0.4-0.5-0.7-0.7c-0.3-0.2-0.6-0.3-0.9-0.4c-0.3-0.1-0.6-0.1-0.9-0.1h-2.6V38.5
			 M107.1,29.1h-2.6c-0.1,0-0.3,0.1-0.3,0.3v9.4c0,0.1,0.1,0.3,0.3,0.3h2.9c0.3,0,0.7,0,1.1-0.1c0.4-0.1,0.7-0.2,1.1-0.4
			c0.3-0.2,0.6-0.5,0.8-0.8c0.2-0.4,0.3-0.8,0.3-1.4c0-0.5-0.1-0.9-0.3-1.2c-0.2-0.3-0.4-0.6-0.6-0.8c-0.3-0.2-0.5-0.4-0.8-0.5
			c0,0,0,0,0,0c0.2-0.1,0.5-0.3,0.7-0.5c0.2-0.2,0.4-0.4,0.5-0.7c0.1-0.3,0.2-0.6,0.2-1c0-0.5-0.1-0.9-0.3-1.2
			c-0.2-0.3-0.4-0.6-0.7-0.8c-0.3-0.2-0.6-0.3-1-0.4C107.8,29.1,107.4,29.1,107.1,29.1L107.1,29.1z M105.1,29.8h1.9
			c0.3,0,0.7,0,1,0.1c0.3,0.1,0.6,0.2,0.8,0.3c0.2,0.1,0.4,0.3,0.5,0.5c0.1,0.2,0.2,0.5,0.2,0.8c0,0.3-0.1,0.6-0.2,0.8
			c-0.1,0.2-0.3,0.4-0.5,0.6c-0.2,0.1-0.5,0.3-0.8,0.3c-0.3,0.1-0.6,0.1-0.9,0.1h-2V29.8L105.1,29.8z M105.1,34.2h2.4
			c0.3,0,0.6,0,0.9,0.1c0.3,0.1,0.6,0.2,0.8,0.4c0.2,0.2,0.4,0.4,0.6,0.6c0.1,0.3,0.2,0.6,0.2,1c0,0.3-0.1,0.6-0.2,0.9
			c-0.1,0.2-0.3,0.4-0.5,0.6c-0.2,0.2-0.5,0.3-0.8,0.4c-0.3,0.1-0.7,0.1-1.1,0.1h-2.2V34.2L105.1,34.2z"/>
	</g>
	<g>
		<path class="st0" d="M117,39.1c-0.7,0-1.4-0.1-2-0.4c-0.6-0.3-1.1-0.6-1.6-1.1c-0.4-0.4-0.8-1-1-1.6c-0.2-0.6-0.4-1.3-0.4-2
			c0-0.7,0.1-1.4,0.4-2c0.2-0.6,0.6-1.2,1-1.6c0.4-0.4,1-0.8,1.6-1.1c0.6-0.3,1.3-0.4,2-0.4c0.7,0,1.4,0.1,2,0.4
			c0.6,0.3,1.1,0.6,1.6,1.1c0.4,0.4,0.8,1,1,1.6c0.2,0.6,0.4,1.3,0.4,2s-0.1,1.4-0.4,2s-0.6,1.2-1,1.6c-0.4,0.4-1,0.8-1.6,1.1
			C118.4,39,117.7,39.1,117,39.1z M117,29.4c-0.6,0-1.2,0.1-1.8,0.4c-0.5,0.2-1,0.6-1.4,1c-0.4,0.4-0.7,0.9-0.9,1.5
			c-0.2,0.6-0.3,1.2-0.3,1.8c0,0.6,0.1,1.2,0.3,1.8c0.2,0.6,0.5,1,0.9,1.5c0.4,0.4,0.9,0.7,1.4,1c0.5,0.2,1.1,0.4,1.8,0.4
			c0.7,0,1.3-0.1,1.8-0.4c0.5-0.2,1-0.6,1.4-1c0.4-0.4,0.7-0.9,0.9-1.5c0.2-0.6,0.3-1.2,0.3-1.8c0-0.6-0.1-1.2-0.3-1.8
			c-0.2-0.6-0.5-1-0.9-1.5c-0.4-0.4-0.9-0.7-1.4-1C118.3,29.6,117.7,29.4,117,29.4z"/>
		<path class="st0" d="M117,29.1c0.7,0,1.3,0.1,1.9,0.4c0.6,0.2,1.1,0.6,1.5,1c0.4,0.4,0.8,1,1,1.6c0.2,0.6,0.4,1.3,0.4,2
			c0,0.7-0.1,1.4-0.4,2c-0.2,0.6-0.6,1.1-1,1.6c-0.4,0.4-0.9,0.8-1.5,1c-0.6,0.2-1.2,0.4-1.9,0.4s-1.3-0.1-1.9-0.4
			c-0.6-0.2-1.1-0.6-1.5-1c-0.4-0.4-0.8-1-1-1.6c-0.2-0.6-0.4-1.3-0.4-2c0-0.7,0.1-1.4,0.4-2c0.2-0.6,0.6-1.1,1-1.6
			c0.4-0.4,0.9-0.8,1.5-1C115.7,29.2,116.3,29.1,117,29.1 M117,38.7c0.7,0,1.3-0.1,1.9-0.4c0.6-0.2,1-0.6,1.4-1
			c0.4-0.4,0.7-0.9,0.9-1.5c0.2-0.6,0.3-1.2,0.3-1.8c0-0.7-0.1-1.3-0.3-1.8c-0.2-0.6-0.5-1.1-0.9-1.5c-0.4-0.4-0.9-0.8-1.4-1
			c-0.6-0.2-1.2-0.4-1.8-0.4c-0.7,0-1.3,0.1-1.8,0.4c-0.6,0.2-1,0.6-1.4,1c-0.4,0.4-0.7,0.9-0.9,1.5c-0.2,0.6-0.3,1.2-0.3,1.8
			c0,0.7,0.1,1.3,0.3,1.8c0.2,0.6,0.5,1.1,0.9,1.5c0.4,0.4,0.9,0.8,1.4,1C115.7,38.6,116.3,38.7,117,38.7 M117,28.8
			c-0.7,0-1.4,0.1-2,0.4c-0.6,0.3-1.2,0.6-1.6,1.1c-0.5,0.5-0.8,1-1.1,1.6c-0.3,0.6-0.4,1.3-0.4,2.1c0,0.8,0.1,1.5,0.4,2.1
			c0.3,0.6,0.6,1.2,1.1,1.6c0.5,0.5,1,0.8,1.6,1.1c0.6,0.3,1.3,0.4,2,0.4c0.7,0,1.4-0.1,2-0.4c0.6-0.3,1.2-0.6,1.6-1.1
			c0.5-0.5,0.8-1,1.1-1.6c0.3-0.6,0.4-1.3,0.4-2.1c0-0.8-0.1-1.5-0.4-2.1c-0.3-0.6-0.6-1.2-1.1-1.6c-0.5-0.5-1-0.8-1.6-1.1
			C118.4,28.9,117.8,28.8,117,28.8L117,28.8z M117,38.5c-0.6,0-1.2-0.1-1.8-0.3c-0.5-0.2-1-0.5-1.4-0.9c-0.4-0.4-0.7-0.9-0.9-1.4
			c-0.2-0.5-0.3-1.1-0.3-1.7c0-0.6,0.1-1.2,0.3-1.7c0.2-0.5,0.5-1,0.9-1.4c0.4-0.4,0.8-0.7,1.4-0.9c0.5-0.2,1.1-0.3,1.7-0.3
			c0.6,0,1.2,0.1,1.7,0.3c0.5,0.2,1,0.5,1.4,0.9c0.4,0.4,0.7,0.9,0.9,1.4c0.2,0.5,0.3,1.1,0.3,1.7c0,0.6-0.1,1.2-0.3,1.7
			c-0.2,0.5-0.5,1-0.9,1.4c-0.4,0.4-0.8,0.7-1.4,0.9C118.3,38.4,117.7,38.5,117,38.5L117,38.5z"/>
	</g>
	<g>
		<path class="st0" d="M131.3,38.8c0,0-0.1,0-0.1-0.1l-6.6-8.8v8.7c0,0.1-0.1,0.1-0.1,0.1h-0.3c-0.1,0-0.1-0.1-0.1-0.1v-9.4
			c0-0.1,0.1-0.1,0.1-0.1h0.4c0,0,0.1,0,0.1,0l6.6,8.8v-8.7c0-0.1,0.1-0.1,0.1-0.1h0.3c0.1,0,0.1,0.1,0.1,0.1v9.4
			c0,0.1-0.1,0.1-0.1,0.1H131.3z"/>
		<path class="st0" d="M131.7,29.3v9.4h-0.4l-6.7-9h0v9h-0.3v-9.4h0.4l6.8,9h0v-9H131.7 M131.7,29.1h-0.3c-0.1,0-0.3,0.1-0.3,0.3
			v8.3l-6.3-8.5c0-0.1-0.1-0.1-0.2-0.1h-0.4c-0.1,0-0.3,0.1-0.3,0.3v9.4c0,0.1,0.1,0.3,0.3,0.3h0.3c0.1,0,0.3-0.1,0.3-0.3v-8.3
			l6.3,8.5c0,0.1,0.1,0.1,0.2,0.1h0.4c0.1,0,0.3-0.1,0.3-0.3v-9.4C132,29.2,131.9,29.1,131.7,29.1L131.7,29.1z"/>
	</g>
	<g>
		<path class="st0" d="M140.2,39.1c-0.6,0-1.2-0.1-1.6-0.3c-0.5-0.2-0.9-0.5-1.2-0.9c0,0,0-0.1,0-0.1s0-0.1,0-0.1l0.2-0.2
			c0,0,0.1,0,0.1,0c0,0,0.1,0,0.1,0c0.3,0.3,0.7,0.6,1.1,0.8c0.4,0.2,0.9,0.3,1.3,0.3c0.3,0,0.6,0,0.9-0.1c0.3-0.1,0.6-0.2,0.8-0.4
			c0.2-0.2,0.4-0.4,0.5-0.7c0.1-0.3,0.2-0.6,0.2-0.9c0-0.3-0.1-0.6-0.2-0.9c-0.1-0.2-0.3-0.4-0.6-0.6c-0.2-0.2-0.5-0.3-0.8-0.4
			c-0.3-0.1-0.6-0.2-0.9-0.3c-0.4-0.1-0.8-0.3-1.1-0.4c-0.3-0.1-0.6-0.3-0.9-0.5c-0.2-0.2-0.4-0.5-0.6-0.8s-0.2-0.7-0.2-1.1
			c0-0.4,0.1-0.8,0.2-1.1c0.2-0.3,0.4-0.6,0.7-0.8c0.3-0.2,0.6-0.4,1-0.5c0.4-0.1,0.7-0.2,1.1-0.2c0.5,0,1,0.1,1.4,0.3
			c0.4,0.2,0.8,0.5,1.1,0.8c0,0.1,0,0.1,0,0.2l-0.2,0.2c0,0-0.1,0-0.1,0c0,0,0,0,0,0c0,0-0.1,0-0.1,0c-0.2-0.3-0.5-0.5-0.9-0.7
			c-0.4-0.2-0.8-0.2-1.2-0.2c-0.3,0-0.6,0-0.9,0.1c-0.3,0.1-0.6,0.2-0.8,0.4c-0.2,0.2-0.4,0.4-0.6,0.6c-0.1,0.3-0.2,0.6-0.2,0.9
			c0,0.3,0.1,0.6,0.2,0.9c0.1,0.2,0.3,0.4,0.5,0.6c0.2,0.2,0.5,0.3,0.7,0.4c0.3,0.1,0.6,0.2,0.8,0.3c0.4,0.1,0.8,0.3,1.1,0.4
			c0.4,0.1,0.7,0.3,0.9,0.5c0.3,0.2,0.5,0.5,0.6,0.8c0.2,0.3,0.2,0.7,0.2,1.1c0,0.4-0.1,0.8-0.2,1.1c-0.2,0.3-0.4,0.6-0.6,0.8
			c-0.3,0.2-0.6,0.4-1,0.5C141,39.1,140.6,39.1,140.2,39.1z"/>
		<path class="st0" d="M140.5,29.1c0.5,0,0.9,0.1,1.4,0.3c0.4,0.2,0.8,0.4,1.1,0.8l-0.2,0.2c-0.2-0.3-0.6-0.6-0.9-0.7
			c-0.4-0.2-0.8-0.3-1.3-0.3c-0.3,0-0.6,0-0.9,0.1c-0.3,0.1-0.6,0.2-0.8,0.4c-0.2,0.2-0.4,0.4-0.6,0.7c-0.2,0.3-0.2,0.6-0.2,1
			c0,0.4,0.1,0.7,0.2,0.9c0.1,0.3,0.3,0.5,0.5,0.6c0.2,0.2,0.5,0.3,0.8,0.4c0.3,0.1,0.6,0.2,0.9,0.3c0.4,0.1,0.8,0.3,1.1,0.4
			c0.3,0.1,0.6,0.3,0.9,0.5c0.3,0.2,0.5,0.4,0.6,0.7c0.1,0.3,0.2,0.6,0.2,1c0,0.4-0.1,0.8-0.2,1.1c-0.2,0.3-0.4,0.6-0.6,0.8
			c-0.3,0.2-0.6,0.4-0.9,0.5c-0.3,0.1-0.7,0.2-1.1,0.2c-0.6,0-1.1-0.1-1.6-0.3c-0.5-0.2-0.9-0.5-1.2-0.8l0.2-0.2
			c0.3,0.4,0.7,0.6,1.2,0.8c0.4,0.2,0.9,0.3,1.4,0.3c0.3,0,0.7-0.1,1-0.2c0.3-0.1,0.6-0.2,0.8-0.4c0.2-0.2,0.4-0.4,0.6-0.7
			c0.1-0.3,0.2-0.6,0.2-1c0-0.4-0.1-0.7-0.2-0.9c-0.2-0.2-0.3-0.5-0.6-0.6s-0.5-0.3-0.8-0.4c-0.3-0.1-0.6-0.2-0.9-0.3
			c-0.4-0.1-0.7-0.3-1.1-0.4c-0.3-0.1-0.6-0.3-0.8-0.5c-0.2-0.2-0.4-0.4-0.5-0.7c-0.1-0.3-0.2-0.6-0.2-1c0-0.4,0.1-0.7,0.2-1
			c0.2-0.3,0.4-0.6,0.6-0.8c0.3-0.2,0.6-0.4,0.9-0.5C139.7,29.1,140.1,29.1,140.5,29.1 M140.5,28.8c-0.4,0-0.8,0.1-1.2,0.2
			c-0.4,0.1-0.7,0.3-1,0.5c-0.3,0.2-0.5,0.5-0.7,0.9c-0.2,0.3-0.3,0.7-0.3,1.2c0,0.4,0.1,0.8,0.2,1.1c0.1,0.3,0.3,0.6,0.6,0.8
			c0.3,0.2,0.6,0.4,0.9,0.5c0.3,0.1,0.7,0.3,1.1,0.4c0.3,0.1,0.6,0.2,0.9,0.3c0.3,0.1,0.5,0.2,0.8,0.4c0.2,0.2,0.4,0.3,0.5,0.6
			c0.1,0.2,0.2,0.5,0.2,0.8c0,0.3-0.1,0.6-0.2,0.9c-0.1,0.2-0.3,0.5-0.5,0.6c-0.2,0.2-0.5,0.3-0.7,0.4c-0.3,0.1-0.6,0.1-0.9,0.1
			c-0.4,0-0.9-0.1-1.3-0.3c-0.4-0.2-0.8-0.4-1.1-0.8c0-0.1-0.1-0.1-0.2-0.1c-0.1,0-0.1,0-0.2,0.1l-0.2,0.2c-0.1,0-0.1,0.1-0.1,0.2
			c0,0.1,0,0.1,0.1,0.2c0.3,0.4,0.8,0.7,1.3,0.9c0.5,0.2,1.1,0.3,1.7,0.3c0.4,0,0.8-0.1,1.2-0.2c0.4-0.1,0.7-0.3,1-0.5
			c0.3-0.2,0.5-0.5,0.7-0.9c0.2-0.3,0.3-0.7,0.3-1.2c0-0.4-0.1-0.8-0.2-1.1c-0.2-0.3-0.4-0.6-0.7-0.8c-0.3-0.2-0.6-0.4-1-0.5
			c-0.4-0.1-0.7-0.3-1.1-0.4c-0.3-0.1-0.6-0.2-0.8-0.3c-0.3-0.1-0.5-0.2-0.7-0.4c-0.2-0.2-0.3-0.3-0.5-0.6c-0.1-0.2-0.2-0.5-0.2-0.8
			c0-0.3,0.1-0.6,0.2-0.8c0.1-0.2,0.3-0.4,0.5-0.6c0.2-0.2,0.5-0.3,0.8-0.4c0.3-0.1,0.6-0.1,0.9-0.1c0.4,0,0.8,0.1,1.2,0.2
			c0.3,0.2,0.6,0.4,0.9,0.7c0,0.1,0.1,0.1,0.2,0.1c0,0,0,0,0,0c0.1,0,0.1,0,0.2-0.1l0.2-0.2c0.1-0.1,0.1-0.2,0-0.3
			c-0.3-0.4-0.7-0.7-1.2-0.8C141.5,28.9,141,28.8,140.5,28.8L140.5,28.8z"/>
	</g>
	<g>
		<path class="st0" d="M152,38.8c-0.1,0-0.1-0.1-0.1-0.1v-4.6h-6.1v4.6c0,0.1-0.1,0.1-0.1,0.1h-0.3c-0.1,0-0.1-0.1-0.1-0.1v-9.4
			c0-0.1,0.1-0.1,0.1-0.1h0.3c0.1,0,0.1,0.1,0.1,0.1v4.3h6.1v-4.3c0-0.1,0.1-0.1,0.1-0.1h0.3c0.1,0,0.1,0.1,0.1,0.1v9.4
			c0,0.1-0.1,0.1-0.1,0.1H152z"/>
		<path class="st0" d="M152.3,29.3v9.4H152V34h-6.3v4.7h-0.3v-9.4h0.3v4.4h6.3v-4.4H152.3 M152.3,29.1H152c-0.1,0-0.3,0.1-0.3,0.3
			v4.2H146v-4.2c0-0.1-0.1-0.3-0.3-0.3h-0.3c-0.1,0-0.3,0.1-0.3,0.3v9.4c0,0.1,0.1,0.3,0.3,0.3h0.3c0.1,0,0.3-0.1,0.3-0.3v-4.5h5.8
			v4.5c0,0.1,0.1,0.3,0.3,0.3h0.3c0.1,0,0.3-0.1,0.3-0.3v-9.4C152.6,29.2,152.5,29.1,152.3,29.1L152.3,29.1z"/>
	</g>
	<g>
		<path class="st0" d="M162,38.8c-0.1,0-0.1,0-0.1-0.1l-1.1-2.6h-5.3l-1.1,2.6c0,0-0.1,0.1-0.1,0.1H154c0,0-0.1,0-0.1-0.1
			c0,0,0-0.1,0-0.1l4.1-9.4c0,0,0.1-0.1,0.1-0.1h0.4c0.1,0,0.1,0,0.1,0.1l3.9,9.4c0,0,0,0.1,0,0.1s-0.1,0.1-0.1,0.1H162z
			 M160.6,35.6l-2.4-5.8l-2.5,5.8H160.6z"/>
		<path class="st0" d="M158.4,29.3l3.9,9.4H162l-1.1-2.7h-5.5l-1.2,2.7H154l4.1-9.4H158.4 M155.5,35.8h5.3l-2.6-6.3L155.5,35.8
			 M158.4,29.1H158c-0.1,0-0.2,0.1-0.2,0.2l-4.1,9.4c0,0.1,0,0.2,0,0.2c0,0.1,0.1,0.1,0.2,0.1h0.3c0.1,0,0.2-0.1,0.2-0.2l1.1-2.5
			h5.1l1.1,2.5c0,0.1,0.1,0.2,0.2,0.2h0.3c0.1,0,0.2,0,0.2-0.1s0.1-0.2,0-0.2l-3.9-9.4C158.6,29.1,158.5,29.1,158.4,29.1L158.4,29.1
			z M155.9,35.5l2.3-5.4l2.2,5.4H155.9L155.9,35.5z"/>
	</g>
	<g>
		<path class="st0" d="M164,38.8c-0.1,0-0.1-0.1-0.1-0.1v-9.4c0-0.1,0.1-0.1,0.1-0.1h2.5c0.3,0,0.7,0,1,0.1c0.4,0.1,0.7,0.2,1,0.4
			c0.3,0.2,0.5,0.4,0.7,0.8c0.2,0.3,0.3,0.7,0.3,1.2c0,0.4-0.1,0.8-0.2,1.1c-0.2,0.3-0.4,0.6-0.6,0.8c-0.3,0.2-0.6,0.4-0.9,0.5
			c-0.3,0.1-0.7,0.2-1.1,0.2h-2.3v4.5c0,0.1-0.1,0.1-0.1,0.1H164z M166.7,33.7c0.3,0,0.6,0,0.8-0.1c0.3-0.1,0.5-0.2,0.7-0.4
			c0.2-0.2,0.4-0.4,0.5-0.6c0.1-0.3,0.2-0.6,0.2-0.9c0-0.4-0.1-0.7-0.2-0.9c-0.1-0.2-0.3-0.4-0.5-0.6c-0.2-0.2-0.5-0.3-0.8-0.3
			c-0.3-0.1-0.6-0.1-0.9-0.1h-2.3v4H166.7z"/>
		<path class="st0" d="M166.5,29.3c0.3,0,0.7,0,1,0.1c0.3,0.1,0.7,0.2,0.9,0.4c0.3,0.2,0.5,0.4,0.7,0.7c0.2,0.3,0.3,0.7,0.3,1.1
			c0,0.4-0.1,0.8-0.2,1.1c-0.1,0.3-0.3,0.6-0.6,0.8c-0.2,0.2-0.5,0.4-0.9,0.5c-0.3,0.1-0.7,0.2-1.1,0.2h-2.4v4.6H164v-9.4H166.5
			 M164.3,33.8h2.4c0.3,0,0.6,0,0.9-0.1c0.3-0.1,0.6-0.2,0.8-0.4c0.2-0.2,0.4-0.4,0.6-0.7c0.1-0.3,0.2-0.6,0.2-1
			c0-0.4-0.1-0.7-0.2-1c-0.2-0.3-0.3-0.5-0.6-0.6c-0.2-0.2-0.5-0.3-0.8-0.3c-0.3-0.1-0.6-0.1-0.9-0.1h-2.4V33.8 M166.5,29.1H164
			c-0.1,0-0.3,0.1-0.3,0.3v9.4c0,0.1,0.1,0.3,0.3,0.3h0.3c0.1,0,0.3-0.1,0.3-0.3v-4.4h2.2c0.4,0,0.8-0.1,1.1-0.2
			c0.4-0.1,0.7-0.3,1-0.5c0.3-0.2,0.5-0.5,0.7-0.8c0.2-0.3,0.2-0.7,0.2-1.2c0-0.5-0.1-0.9-0.3-1.3c-0.2-0.3-0.5-0.6-0.8-0.8
			c-0.3-0.2-0.6-0.3-1-0.4C167.2,29.1,166.9,29.1,166.5,29.1L166.5,29.1z M164.5,29.8h2.1c0.3,0,0.5,0,0.8,0.1
			c0.3,0.1,0.5,0.2,0.7,0.3c0.2,0.1,0.4,0.3,0.5,0.6c0.1,0.2,0.2,0.5,0.2,0.9c0,0.3-0.1,0.6-0.2,0.9c-0.1,0.2-0.3,0.4-0.5,0.6
			c-0.2,0.2-0.4,0.3-0.7,0.3c-0.3,0.1-0.5,0.1-0.8,0.1h-2.2V29.8L164.5,29.8z"/>
	</g>
	<g>
		<path class="st0" d="M171.6,38.8c-0.1,0-0.1-0.1-0.1-0.1v-9.4c0-0.1,0.1-0.1,0.1-0.1h5.5c0.1,0,0.1,0.1,0.1,0.1v0.3
			c0,0.1-0.1,0.1-0.1,0.1H172v3.9h4.8c0.1,0,0.1,0.1,0.1,0.1V34c0,0.1-0.1,0.1-0.1,0.1H172v4.2h5.3c0.1,0,0.1,0.1,0.1,0.1v0.3
			c0,0.1-0.1,0.1-0.1,0.1H171.6z"/>
		<path class="st0" d="M177.1,29.3v0.3h-5.2v4.1h4.9V34h-4.9v4.5h5.4v0.3h-5.7v-9.4H177.1 M177.1,29.1h-5.5c-0.1,0-0.3,0.1-0.3,0.3
			v9.4c0,0.1,0.1,0.3,0.3,0.3h5.7c0.1,0,0.3-0.1,0.3-0.3v-0.3c0-0.1-0.1-0.3-0.3-0.3h-5.2v-4h4.6c0.1,0,0.3-0.1,0.3-0.3v-0.3
			c0-0.1-0.1-0.3-0.3-0.3h-4.6v-3.6h4.9c0.1,0,0.3-0.1,0.3-0.3v-0.3C177.3,29.2,177.2,29.1,177.1,29.1L177.1,29.1z"/>
	</g>
</g>
<g>
	<path class="st0" d="M34,67.7L0.7,34.4c-1-1-1-2.6,0-3.6L30.8,0.8c0.5-0.5,1.3-0.8,2.1-0.7l3,0.4c2.1,0.3,3,2.8,1.5,4.3L11.3,30.8
		c-1,1-1,2.6,0,3.6L34,57.2c1,1,2.6,1,3.6,0l24.8-24.8c0.5-0.5,1.3-0.8,2.1-0.7l3,0.4c2.1,0.3,3,2.8,1.5,4.3L37.6,67.7
		C36.6,68.7,35,68.7,34,67.7z"/>
</g>
<g>
	<path class="st1" d="M36.2,48l-0.1-1.9c0-0.7,0.2-1.4,0.7-1.9l16.9-16.9c1-1,1-2.6,0-3.6l0,0c-1-1-2.6-1-3.6,0L30.1,43.6
		c-1,1-2.6,1-3.6,0l-9.2-9.2c-1-1-1-2.6,0-3.6L38.8,9.3c0.5-0.5,1.2-0.8,1.9-0.7l1.9,0.1c2.2,0.1,3.2,2.8,1.7,4.4L26.4,30.8
		c-1,1-1,2.6,0,3.6l0,0c1,1,2.6,1,3.6,0l20.1-20.1c1-1,2.6-1,3.6,0l9.2,9.2c1,1,1,2.6,0,3.6L40.5,49.6C39,51.2,36.3,50.2,36.2,48z"
		/>
</g>
</svg>
