<?xml version="1.0" encoding="utf-8"?>
<!-- Generator: Adobe Illustrator 24.1.1, SVG Export Plug-In . SVG Version: 6.00 Build 0)  -->
<svg version="1.1" id="Calque_1" xmlns="http://www.w3.org/2000/svg" xmlns:xlink="http://www.w3.org/1999/xlink" x="0px" y="0px"
	 viewBox="0 0 624 278.5" style="enable-background:new 0 0 624 278.5;" xml:space="preserve">
<style type="text/css">
	.st0{fill:#FFFFFF;}
	.st1{fill:#6B6B3D;}
</style>
<g>
	<path class="st0" d="M159.5,127.6c-0.6,0.2-1.2,0.4-1.9,0.4c-0.7,0-1.4-0.1-1.9-0.4c-0.6-0.2-1.1-0.6-1.5-1s-0.8-1-1-1.6
		c-0.2-0.6-0.4-1.3-0.4-2c0-0.7,0.1-1.4,0.4-2c0.2-0.6,0.6-1.1,1-1.6s0.9-0.8,1.5-1c0.6-0.2,1.2-0.4,1.9-0.4c0.6,0,1.2,0.1,1.7,0.3
		c0.6,0.2,1,0.5,1.4,0.9l-0.2,0.2c-0.2-0.2-0.4-0.4-0.6-0.5c-0.2-0.1-0.5-0.3-0.7-0.4c-0.3-0.1-0.5-0.2-0.8-0.2
		c-0.3,0-0.5-0.1-0.8-0.1c-0.7,0-1.3,0.1-1.8,0.4c-0.6,0.2-1,0.6-1.4,1c-0.4,0.4-0.7,0.9-0.9,1.5c-0.2,0.6-0.3,1.2-0.3,1.8
		c0,0.7,0.1,1.3,0.3,1.8c0.2,0.6,0.5,1.1,0.9,1.5c0.4,0.4,0.9,0.8,1.4,1c0.6,0.2,1.2,0.4,1.9,0.4c0.6,0,1.2-0.1,1.7-0.3
		c0.6-0.2,1-0.6,1.4-1l0.2,0.2C160.6,127,160.1,127.4,159.5,127.6z"/>
	<path class="st0" d="M169.6,127.7l-1.1-2.7H163l-1.2,2.7h-0.3l4.1-9.4h0.4l3.9,9.4H169.6z M165.8,118.5l-2.7,6.3h5.3L165.8,118.5z"
		/>
	<path class="st0" d="M176.9,127.7l-2.8-4.7h-2.2v4.7h-0.3v-9.4h2.6c0.3,0,0.7,0,1,0.1c0.4,0.1,0.7,0.2,0.9,0.4
		c0.3,0.2,0.5,0.4,0.7,0.7c0.2,0.3,0.3,0.7,0.3,1.2c0,0.4-0.1,0.8-0.3,1.1c-0.2,0.3-0.4,0.5-0.7,0.7c-0.3,0.2-0.6,0.3-0.9,0.4
		c-0.3,0.1-0.6,0.1-0.9,0.1l2.9,4.8H176.9z M176.8,120.6c0-0.4-0.1-0.7-0.2-1c-0.2-0.3-0.4-0.5-0.6-0.6c-0.3-0.2-0.6-0.3-0.9-0.3
		c-0.3-0.1-0.7-0.1-1-0.1h-2.2v4.2h2.3c0.9,0,1.5-0.2,2-0.5C176.6,121.8,176.8,121.3,176.8,120.6z"/>
	<path class="st0" d="M185.4,125.2c0,0.5-0.1,0.9-0.3,1.2c-0.2,0.3-0.4,0.6-0.7,0.8c-0.3,0.2-0.6,0.3-1,0.4c-0.4,0.1-0.7,0.1-1,0.1
		h-2.9v-9.4h2.6c0.4,0,0.7,0,1.1,0.1c0.3,0.1,0.7,0.2,0.9,0.4c0.3,0.2,0.5,0.4,0.7,0.7c0.2,0.3,0.3,0.6,0.3,1.1
		c0,0.3-0.1,0.6-0.2,0.9c-0.1,0.2-0.3,0.5-0.4,0.6c-0.2,0.2-0.4,0.3-0.6,0.4c-0.2,0.1-0.5,0.2-0.7,0.2v0c0.2,0,0.5,0.1,0.8,0.2
		c0.3,0.1,0.5,0.3,0.8,0.4c0.2,0.2,0.4,0.4,0.6,0.7C185.3,124.4,185.4,124.8,185.4,125.2z M184.6,120.6c0-0.4-0.1-0.7-0.2-1
		c-0.2-0.3-0.3-0.5-0.6-0.6c-0.2-0.2-0.5-0.3-0.9-0.3c-0.3-0.1-0.7-0.1-1-0.1h-2.2v4h2.3c0.3,0,0.6,0,0.9-0.1
		c0.3-0.1,0.6-0.2,0.8-0.4c0.2-0.2,0.4-0.4,0.6-0.6C184.5,121.3,184.6,120.9,184.6,120.6z M185.1,125.2c0-0.4-0.1-0.8-0.3-1.1
		c-0.2-0.3-0.4-0.5-0.7-0.7c-0.3-0.2-0.6-0.3-0.9-0.4c-0.3-0.1-0.6-0.1-0.9-0.1h-2.6v4.6h2.5c0.4,0,0.8,0,1.1-0.1
		c0.4-0.1,0.7-0.2,0.9-0.4c0.3-0.2,0.5-0.4,0.6-0.7C185,126,185.1,125.6,185.1,125.2z"/>
	<path class="st0" d="M196.8,123c0,0.7-0.1,1.4-0.4,2c-0.2,0.6-0.6,1.1-1,1.6c-0.4,0.4-0.9,0.8-1.5,1c-0.6,0.2-1.2,0.4-1.9,0.4
		s-1.3-0.1-1.9-0.4c-0.6-0.2-1.1-0.6-1.5-1c-0.4-0.4-0.8-1-1-1.6c-0.2-0.6-0.4-1.3-0.4-2c0-0.7,0.1-1.4,0.4-2c0.2-0.6,0.6-1.1,1-1.6
		c0.4-0.4,0.9-0.8,1.5-1c0.6-0.2,1.2-0.4,1.9-0.4c0.7,0,1.3,0.1,1.9,0.4c0.6,0.2,1.1,0.6,1.5,1c0.4,0.4,0.8,1,1,1.6
		C196.7,121.6,196.8,122.3,196.8,123z M196.5,123c0-0.7-0.1-1.3-0.3-1.8c-0.2-0.6-0.5-1.1-0.9-1.5c-0.4-0.4-0.9-0.8-1.4-1
		c-0.6-0.2-1.2-0.4-1.8-0.4c-0.7,0-1.3,0.1-1.8,0.4c-0.6,0.2-1,0.6-1.4,1c-0.4,0.4-0.7,0.9-0.9,1.5c-0.2,0.6-0.3,1.2-0.3,1.8
		c0,0.7,0.1,1.3,0.3,1.8c0.2,0.6,0.5,1.1,0.9,1.5c0.4,0.4,0.9,0.8,1.4,1c0.6,0.2,1.2,0.4,1.9,0.4s1.3-0.1,1.9-0.4
		c0.6-0.2,1-0.6,1.4-1c0.4-0.4,0.7-0.9,0.9-1.5C196.4,124.3,196.5,123.7,196.5,123z"/>
	<path class="st0" d="M206.2,127.7l-6.7-9h0v9h-0.3v-9.4h0.4l6.8,9h0v-9h0.3v9.4H206.2z"/>
	<path class="st0" d="M218,125.5c0,0.4-0.1,0.8-0.2,1.1c-0.2,0.3-0.4,0.6-0.6,0.8c-0.3,0.2-0.6,0.4-0.9,0.5
		c-0.3,0.1-0.7,0.2-1.1,0.2c-0.6,0-1.1-0.1-1.6-0.3c-0.5-0.2-0.9-0.5-1.2-0.8l0.2-0.2c0.3,0.4,0.7,0.6,1.2,0.8
		c0.4,0.2,0.9,0.3,1.4,0.3c0.3,0,0.7-0.1,1-0.2c0.3-0.1,0.6-0.2,0.8-0.4c0.2-0.2,0.4-0.4,0.6-0.7c0.1-0.3,0.2-0.6,0.2-1
		c0-0.4-0.1-0.7-0.2-0.9c-0.2-0.2-0.3-0.5-0.6-0.6c-0.2-0.2-0.5-0.3-0.8-0.4c-0.3-0.1-0.6-0.2-0.9-0.3c-0.4-0.1-0.7-0.3-1.1-0.4
		c-0.3-0.1-0.6-0.3-0.8-0.5c-0.2-0.2-0.4-0.4-0.5-0.7c-0.1-0.3-0.2-0.6-0.2-1c0-0.4,0.1-0.7,0.2-1c0.2-0.3,0.4-0.6,0.6-0.8
		c0.3-0.2,0.6-0.4,0.9-0.5s0.7-0.2,1.1-0.2c0.5,0,0.9,0.1,1.4,0.3c0.4,0.2,0.8,0.4,1.1,0.8l-0.2,0.2c-0.2-0.3-0.6-0.6-0.9-0.7
		c-0.4-0.2-0.8-0.3-1.3-0.3c-0.3,0-0.6,0-0.9,0.1c-0.3,0.1-0.6,0.2-0.8,0.4c-0.2,0.2-0.4,0.4-0.6,0.7c-0.2,0.3-0.2,0.6-0.2,1
		c0,0.4,0.1,0.7,0.2,0.9c0.1,0.3,0.3,0.5,0.5,0.6c0.2,0.2,0.5,0.3,0.8,0.4c0.3,0.1,0.6,0.2,0.9,0.3c0.4,0.1,0.8,0.3,1.1,0.4
		c0.3,0.1,0.6,0.3,0.9,0.5c0.3,0.2,0.5,0.4,0.6,0.7C217.9,124.7,218,125.1,218,125.5z"/>
	<path class="st0" d="M227,127.7V123h-6.3v4.7h-0.3v-9.4h0.3v4.4h6.3v-4.4h0.3v9.4H227z"/>
	<path class="st0" d="M236.9,127.7l-1.1-2.7h-5.5l-1.2,2.7h-0.3l4.1-9.4h0.4l3.9,9.4H236.9z M233.1,118.5l-2.7,6.3h5.3L233.1,118.5z
		"/>
	<path class="st0" d="M244.4,120.7c0,0.4-0.1,0.8-0.2,1.1c-0.1,0.3-0.3,0.6-0.6,0.8c-0.2,0.2-0.5,0.4-0.9,0.5
		c-0.3,0.1-0.7,0.2-1.1,0.2h-2.4v4.6h-0.3v-9.4h2.5c0.3,0,0.7,0,1,0.1c0.3,0.1,0.7,0.2,0.9,0.4c0.3,0.2,0.5,0.4,0.7,0.7
		C244.3,119.8,244.4,120.2,244.4,120.7z M244.1,120.7c0-0.4-0.1-0.7-0.2-1c-0.2-0.3-0.3-0.5-0.6-0.6c-0.2-0.2-0.5-0.3-0.8-0.3
		c-0.3-0.1-0.6-0.1-0.9-0.1h-2.4v4.3h2.4c0.3,0,0.6,0,0.9-0.1c0.3-0.1,0.6-0.2,0.8-0.4c0.2-0.2,0.4-0.4,0.6-0.7
		C244,121.4,244.1,121,244.1,120.7z"/>
	<path class="st0" d="M246.5,127.7v-9.4h5.5v0.3h-5.2v4.1h4.9v0.3h-4.9v4.5h5.4v0.3H246.5z"/>
</g>
<g>
	<polygon class="st0" points="98.5,157.2 64.5,123.2 98.5,89.2 103.4,94.1 74.2,123.2 98.5,147.5 127.7,118.4 132.5,123.2 	"/>
</g>
<g>
	<polygon class="st1" points="99.1,142.7 94.9,138.4 116.7,116.6 113.4,113.2 91.5,135.1 79.7,123.2 105.8,97.1 110.1,101.4 
		88.2,123.2 91.5,126.6 113.4,104.7 125.2,116.6 	"/>
</g>
</svg>
